<svg xmlns="http://www.w3.org/2000/svg" viewBox="0 0 40 55"><title>Ресурс 4</title><g id="Слой_2" data-name="Слой 2"><g id="Слой_1-2" data-name="Слой 1"><path d="M39.68.32A1.14,1.14,0,0,0,38.9,0H1.1A1.1,1.1,0,0,0,0,1.1V53.9A1.1,1.1,0,0,0,1.1,55H38.81a1.11,1.11,0,0,0,1.1-1.09L40,1.1A1.14,1.14,0,0,0,39.68.32Z" style="fill:#bed5eb"/><path d="M39.68.32A1.14,1.14,0,0,0,38.9,0H1.1A1.1,1.1,0,0,0,0,1.1V53.9A1.1,1.1,0,0,0,1.1,55H38.81a1.11,1.11,0,0,0,1.1-1.09L40,1.1A1.14,1.14,0,0,0,39.68.32Zm-2,52.49H2.2V2.19H37.8Z" style="fill:#005dbd"/><path d="M36,45.8l-5-5.07c0-.15,0-.3,0-.46a5.68,5.68,0,0,0-11.35,0c0,.16,0,.31,0,.45L14.6,45.8a1.07,1.07,0,0,0-.26,1.13,1.11,1.11,0,0,0,.92.73l2.39.27.27,2.39a1.11,1.11,0,0,0,.74.91,1.09,1.09,0,0,0,.36.06A1.11,1.11,0,0,0,19.8,51l5.06-5.06.48,0,.46,0,5,5.05a1.11,1.11,0,0,0,1.15.27,1.1,1.1,0,0,0,.73-.91L33,47.93l2.4-.27a1.1,1.1,0,0,0,.91-.73A1.08,1.08,0,0,0,36,45.8Zm-16.18,2-.11-1a1.1,1.1,0,0,0-1-1l-1-.11,2.65-2.65a5.61,5.61,0,0,0,2.08,2.08Zm5.49-4.07a3.47,3.47,0,1,1,3.47-3.47A3.48,3.48,0,0,1,25.34,43.74Zm6.52,2.11a1.1,1.1,0,0,0-1,1l-.12,1-2.61-2.63a5.73,5.73,0,0,0,2.08-2.07l2.63,2.64Z" style="fill:#005dbd"/><path d="M15.05,37.8H6.58a1.1,1.1,0,1,0,0,2.19h8.47a1.1,1.1,0,1,0,0-2.19Z" style="fill:#005dbd"/><path d="M24.45,6.57h-8.9a1.1,1.1,0,1,0,0,2.19h8.9a1.1,1.1,0,1,0,0-2.19Z" style="fill:#005dbd"/><path d="M32.92,11.18H7.08a1.1,1.1,0,1,0,0,2.19H32.92a1.1,1.1,0,1,0,0-2.19Z" style="fill:#005dbd"/><path d="M28.08,18.73H16.48a1.1,1.1,0,1,0,0,2.2h11.6a1.1,1.1,0,1,0,0-2.2Z" style="fill:#005dbd"/><path d="M12.52,18.73h-.6a1.1,1.1,0,1,0,0,2.2h.6a1.1,1.1,0,1,0,0-2.2Z" style="fill:#005dbd"/><path d="M28.08,23H16.48a1.1,1.1,0,1,0,0,2.19h11.6a1.1,1.1,0,1,0,0-2.19Z" style="fill:#005dbd"/><path d="M12.52,23h-.6a1.1,1.1,0,1,0,0,2.19h.6a1.1,1.1,0,1,0,0-2.19Z" style="fill:#005dbd"/><path d="M28.08,27.39H16.48a1.1,1.1,0,1,0,0,2.19h11.6a1.1,1.1,0,1,0,0-2.19Z" style="fill:#005dbd"/><path d="M12.52,27.39h-.6a1.1,1.1,0,1,0,0,2.19h.6a1.1,1.1,0,1,0,0-2.19Z" style="fill:#005dbd"/></g></g></svg>