<svg xmlns="http://www.w3.org/2000/svg" width="39" height="55" viewBox="0 0 39 55">
  <metadata><?xpacket begin="﻿" id="W5M0MpCehiHzreSzNTczkc9d"?>
<x:xmpmeta xmlns:x="adobe:ns:meta/" x:xmptk="Adobe XMP Core 5.6-c138 79.159824, 2016/09/14-01:09:01        ">
   <rdf:RDF xmlns:rdf="http://www.w3.org/1999/02/22-rdf-syntax-ns#">
      <rdf:Description rdf:about=""/>
   </rdf:RDF>
</x:xmpmeta>
                                                                                                    
                                                                                                    
                                                                                                    
                                                                                                    
                                                                                                    
                                                                                                    
                                                                                                    
                                                                                                    
                                                                                                    
                                                                                                    
                                                                                                    
                                                                                                    
                                                                                                    
                                                                                                    
                                                                                                    
                                                                                                    
                                                                                                    
                                                                                                    
                                                                                                    
                                                                                                    
                           
<?xpacket end="w"?></metadata>
<defs>
    <style>
      .cls-1 {
        fill: #fff;
        fill-rule: evenodd;
      }
    </style>
  </defs>
  <path id="certificate-white-icon" class="cls-1" d="M403.686,8998.32a1.042,1.042,0,0,0-.759-0.32H366.072a1.082,1.082,0,0,0-1.072,1.09v52.81a1.085,1.085,0,0,0,1.072,1.1h36.763a1.084,1.084,0,0,0,1.073-1.09L404,8999.1A1.124,1.124,0,0,0,403.686,8998.32Zm-1.921,52.49H367.144v-50.62h34.709Zm-1.633-7.01-4.916-5.07c0.011-.15.019-0.3,0.019-0.46a5.535,5.535,0,1,0-11.067,0c0,0.16.008,0.31,0.02,0.45l-4.951,5.07a1.121,1.121,0,0,0-.253,1.14,1.078,1.078,0,0,0,.89.73l2.335,0.27,0.268,2.39a1.1,1.1,0,0,0,.712.91,1.081,1.081,0,0,0,.352.06,1.058,1.058,0,0,0,.76-0.32l4.938-5.06c0.153,0.01.307,0.02,0.463,0.02s0.306-.01.457-0.02l4.9,5.05a1.048,1.048,0,0,0,1.113.27,1.09,1.09,0,0,0,.714-0.91l0.268-2.39,2.335-.27a1.078,1.078,0,0,0,.889-0.73A1.1,1.1,0,0,0,400.132,9043.8Zm-15.779,2.01-0.111-.99a1.089,1.089,0,0,0-.943-0.97l-0.978-.11,2.585-2.65a5.657,5.657,0,0,0,2.027,2.08Zm5.349-4.07a3.466,3.466,0,1,1,3.389-3.47A3.436,3.436,0,0,1,389.7,9041.74Zm6.366,2.11a1.088,1.088,0,0,0-.943.97l-0.111.98-2.55-2.63a5.635,5.635,0,0,0,2.029-2.07l2.562,2.64Zm-16.394-8.05h-8.256a1.1,1.1,0,0,0,0,2.19h8.256A1.1,1.1,0,0,0,379.674,9035.8Zm9.168-31.23h-8.685a1.1,1.1,0,0,0,0,2.19h8.685A1.1,1.1,0,0,0,388.842,9004.57Zm8.257,4.6H371.9a1.1,1.1,0,0,0,0,2.2h25.2A1.1,1.1,0,0,0,397.1,9009.17Zm-4.718,7.56H381.068a1.1,1.1,0,0,0,0,2.19h11.313A1.1,1.1,0,0,0,392.381,9016.73Zm-15.173,0h-0.59a1.1,1.1,0,0,0,0,2.19h0.59A1.1,1.1,0,0,0,377.208,9016.73Zm15.173,4.28H381.068a1.1,1.1,0,0,0,0,2.19h11.313A1.1,1.1,0,0,0,392.381,9021.01Zm-15.173,0h-0.59a1.1,1.1,0,0,0,0,2.19h0.59A1.1,1.1,0,0,0,377.208,9021.01Zm15.173,4.38H381.068a1.1,1.1,0,0,0,0,2.19h11.313A1.1,1.1,0,0,0,392.381,9025.39Zm-15.173,0h-0.59a1.1,1.1,0,0,0,0,2.19h0.59A1.1,1.1,0,0,0,377.208,9025.39Z" transform="translate(-365 -8998)"/>
</svg>
