<svg xmlns="http://www.w3.org/2000/svg" viewBox="0 0 80 49.75"><title>Ресурс 6</title><g id="Слой_2" data-name="Слой 2"><g id="Слой_1-2" data-name="Слой 1"><path d="M5,38.75H19.42" style="fill:none;stroke:#005dbd;stroke-linecap:round;stroke-miterlimit:10;stroke-width:2px;fill-rule:evenodd"/><path d="M5,41.87H19.42" style="fill:none;stroke:#005dbd;stroke-linecap:round;stroke-miterlimit:10;stroke-width:2px;fill-rule:evenodd"/><path d="M21.22,0,1.14,5.1A1.21,1.21,0,0,0,0,6.38V35.72A1.21,1.21,0,0,0,1.14,37h37.7V4.35Z" style="fill:#bed5eb;fill-rule:evenodd"/><path d="M5,45H19.42" style="fill:none;stroke:#005dbd;stroke-linecap:round;stroke-miterlimit:10;stroke-width:2px;fill-rule:evenodd"/><path d="M17,36.87,17,38l0,.75.16,3.12L17.4,45l.2,3.75" style="fill:none;stroke:#005dbd;stroke-linecap:round;stroke-miterlimit:10;stroke-width:2px;fill-rule:evenodd"/><path d="M7.68,36.87,7.62,38v0l0,.75-.16,3.12L7.26,45l-.2,3.75" style="fill:none;stroke:#005dbd;stroke-linecap:round;stroke-miterlimit:10;stroke-width:2px;fill-rule:evenodd"/><path d="M16,22V35H9V22h7m0-2H9a2,2,0,0,0-2,2V35a2,2,0,0,0,1.62,2A1.58,1.58,0,0,0,9,37h7a2,2,0,0,0,2-2V22a2,2,0,0,0-2-2Z" style="fill:#005dbd"/><path d="M22.88,38.75H36.82" style="fill:none;stroke:#005dbd;stroke-linecap:round;stroke-miterlimit:10;stroke-width:2px;fill-rule:evenodd"/><path d="M22.88,41.87H36.82" style="fill:none;stroke:#005dbd;stroke-linecap:round;stroke-miterlimit:10;stroke-width:2px;fill-rule:evenodd"/><path d="M22.88,45H36.82" style="fill:none;stroke:#005dbd;stroke-linecap:round;stroke-miterlimit:10;stroke-width:2px;fill-rule:evenodd"/><path d="M34.35,36.87,34.41,38l0,.75.16,3.12L34.77,45l.2,3.75" style="fill:none;stroke:#005dbd;stroke-linecap:round;stroke-miterlimit:10;stroke-width:2px;fill-rule:evenodd"/><path d="M25,36.87,25,38l0,.75-.16,3.12L24.62,45l-.2,3.75" style="fill:none;stroke:#005dbd;stroke-linecap:round;stroke-miterlimit:10;stroke-width:2px;fill-rule:evenodd"/><path d="M33,22V35H26V22h7m0-2H26a2,2,0,0,0-2,2V35a2,2,0,0,0,2,2h7a2,2,0,0,0,2-2V22a2,2,0,0,0-2-2Z" style="fill:#005dbd"/><path d="M46,30.76v4.75h18a5.22,5.22,0,0,0,1.72,2.93A4.9,4.9,0,0,0,69,39.62a5,5,0,0,0,4.91-4.11H79a1,1,0,0,0,1-1V24.53a1,1,0,0,0-.5-.89l-2.9-1.73L75,14.66a4.16,4.16,0,0,0-4-3.28H62.58V10a1,1,0,0,0-1-1H46m0,17.1v2" style="fill:#bed5eb"/><path d="M33.34,12.25v1.62H8.81V12.25H33.34m0-2H8.81a2,2,0,0,0-2,2v1.62a2,2,0,0,0,2,2H33.34a2,2,0,0,0,2-2V12.25a2,2,0,0,0-2-2Z" style="fill:#005dbd"/><path d="M38.84,6.31v-2L21.22,0,1.14,5.1A1.21,1.21,0,0,0,0,6.38V35.72A1.21,1.21,0,0,0,1.14,37h37.7V35H2V6.94L21.23,2.06,36.84,5.92h0Z" style="fill:#005dbd"/><path d="M79.5,23.64l-2.9-1.73L75,14.66a4.16,4.16,0,0,0-4-3.28H62.58V10a1,1,0,0,0-1-1H46v2.05H60.58V26.1H46v2H60.58v5.31H46v2h18a5.22,5.22,0,0,0,1.72,2.93A4.9,4.9,0,0,0,69,39.62a5,5,0,0,0,4.91-4.11H79a1,1,0,0,0,1-1V24.53A1,1,0,0,0,79.5,23.64ZM68.39,13.43h2.52A2.15,2.15,0,0,1,73,15.13l1.46,6.42H68.39ZM69,37.57a3,3,0,0,1-3-2.88,1.06,1.06,0,0,0,0-.41,3,3,0,1,1,3,3.29Zm9-9H76.09V27.5H78Zm0-3.14H75.09a1,1,0,0,0-1,1v3.13a1,1,0,0,0,1,1H78v2.82H73.88a5,5,0,0,0-9.82,0H62.58v-20h3.81v9.15a1,1,0,0,0,1,1h8.07L78,25.12Z" style="fill:#005dbd"/><path d="M79.5,23.64l-2.9-1.73L75,14.66a4.16,4.16,0,0,0-4-3.28H62.58V10a1,1,0,0,0-1-1H46v2.05H60.58V26.1H46v2H60.58v5.31H46v2h18a5.22,5.22,0,0,0,1.72,2.93A4.9,4.9,0,0,0,69,39.62a5,5,0,0,0,4.91-4.11H79a1,1,0,0,0,1-1V24.53A1,1,0,0,0,79.5,23.64ZM68.39,13.43h2.52A2.15,2.15,0,0,1,73,15.13l1.46,6.42H68.39ZM69,37.57a3,3,0,0,1-3-2.88,1.06,1.06,0,0,0,0-.41,3,3,0,1,1,3,3.29Zm9-9H76.09V27.5H78Zm0-3.14H75.09a1,1,0,0,0-1,1v3.13a1,1,0,0,0,1,1H78v2.82H73.88a5,5,0,0,0-9.82,0H62.58v-20h3.81v9.15a1,1,0,0,0,1,1h8.07L78,25.12Z" style="fill:#005dbd"/><path d="M43.38,2V38.87a1,1,0,0,1-2,0V2a1,1,0,0,1,2,0Z" style="fill:#bed5eb;fill-rule:evenodd"/></g></g></svg>