<svg xmlns="http://www.w3.org/2000/svg" viewBox="0 0 58.99 55"><title>Ресурс 5</title><g id="Слой_2" data-name="Слой 2"><g id="Слой_1-2" data-name="Слой 1"><path d="M42.92,54a.66.66,0,0,1-.62-.41l-.94-2.32-.61-.05a9.4,9.4,0,0,1-1.71-.3l-.59-.16-1.71,1.87a.69.69,0,0,1-.35.2h-.14a.66.66,0,0,1-.36-.11l-2-1.26a.64.64,0,0,1-.25-.79l1-2.29-.42-.48a9.48,9.48,0,0,1-1-1.44l-.3-.53-2.55.12a.67.67,0,0,1-.68-.51l-.5-2.29a.63.63,0,0,1,.39-.73l2.34-.93L32,41a8.45,8.45,0,0,1,.3-1.74l.17-.6-1.9-1.7a.63.63,0,0,1-.11-.82l1.28-2a.62.62,0,0,1,.42-.28.36.36,0,0,1,.14,0,.75.75,0,0,1,.26,0l2.32,1,.47-.4a9.31,9.31,0,0,1,1.46-1l.54-.3-.12-2.53A.64.64,0,0,1,37.7,30l2.31-.5.14,0a.66.66,0,0,1,.62.41l.94,2.31.62,0a9.25,9.25,0,0,1,1.83.32l.59.16,1.7-1.86a.66.66,0,0,1,.34-.2h.15a.68.68,0,0,1,.36.1l2,1.27a.64.64,0,0,1,.25.79l-1,2.31.41.47A10,10,0,0,1,50,37l.3.53,2.53-.12a.64.64,0,0,1,.66.5L54,40.24a.65.65,0,0,1-.4.74l-2.35.93,0,.62a8.67,8.67,0,0,1-.32,1.74l-.16.6,1.88,1.68a.64.64,0,0,1,.11.82l-1.28,2a.64.64,0,0,1-.41.29h-.15a.6.6,0,0,1-.26,0l-2.32-1-.47.39a9.34,9.34,0,0,1-1.47,1l-.54.3.12,2.51a.66.66,0,0,1-.52.67l-2.32.5Z" style="fill:#bed5eb"/><path d="M40,30.51l.6,1.47L41,33.13l1.23.09a8.69,8.69,0,0,1,1.64.29l1.18.32.83-.9L47,31.74l1.51.95-.63,1.45-.5,1.14.82.95a9.17,9.17,0,0,1,.91,1.3l.61,1.06,1.22-.05,1.62-.08.38,1.7-1.5.59-1.16.46-.1,1.24A8.19,8.19,0,0,1,49.89,44l-.33,1.2.92.83,1.19,1.06-1,1.47-1.51-.63-1.12-.48-.94.78a8.59,8.59,0,0,1-1.32.91l-1.08.6L44.81,51l.07,1.59L43.12,53l-.6-1.49-.46-1.13-1.22-.11A9.33,9.33,0,0,1,39.3,50l-1.17-.32-.83.9-1.11,1.21-1.5-1,.62-1.42.51-1.16-.83-1A8.69,8.69,0,0,1,34.07,46l-.61-1.06L32.24,45,30.58,45l-.37-1.69,1.48-.59,1.16-.46.09-1.24a8.65,8.65,0,0,1,.27-1.55l.33-1.2-.92-.83-1.2-1.08,1-1.47,1.48.64,1.14.48,1-.8a8.42,8.42,0,0,1,1.3-.91l1.08-.6-.06-1.23-.08-1.62L40,30.51m.2-2.05a1.45,1.45,0,0,0-.35,0l-2.31.5a1.64,1.64,0,0,0-1.31,1.69l.09,1.91a10,10,0,0,0-1.62,1.13L32.9,33a1.57,1.57,0,0,0-.65-.13,1.34,1.34,0,0,0-.35,0,1.63,1.63,0,0,0-1,.72l-1.28,2a1.62,1.62,0,0,0,.28,2.1L31.29,39A9.89,9.89,0,0,0,31,40.9l-1.76.7a1.65,1.65,0,0,0-1,1.88l.5,2.28a1.67,1.67,0,0,0,1.63,1.3h.08L32.34,47a10.36,10.36,0,0,0,1.14,1.6l-.75,1.72a1.62,1.62,0,0,0,.63,2l2,1.26a1.68,1.68,0,0,0,.9.26,1.45,1.45,0,0,0,.35,0,1.57,1.57,0,0,0,.87-.5l1.31-1.42a10,10,0,0,0,1.89.33L41.38,54a1.65,1.65,0,0,0,1.54,1,1.47,1.47,0,0,0,.36,0l2.31-.5a1.64,1.64,0,0,0,1.31-1.68l-.09-1.89a11.38,11.38,0,0,0,1.62-1.12l1.76.74a1.64,1.64,0,0,0,.65.13,2.19,2.19,0,0,0,.36,0,1.68,1.68,0,0,0,1-.72l1.28-2a1.64,1.64,0,0,0-.28-2.11l-1.42-1.27a10.72,10.72,0,0,0,.35-1.93l1.77-.7A1.65,1.65,0,0,0,55,40l-.51-2.29a1.62,1.62,0,0,0-1.61-1.29h-.08l-1.91.09a10.65,10.65,0,0,0-1.14-1.61l.76-1.74a1.63,1.63,0,0,0-.63-2l-2-1.26a1.68,1.68,0,0,0-.89-.26,1.47,1.47,0,0,0-.36,0,1.57,1.57,0,0,0-.87.5l-1.29,1.4a10.68,10.68,0,0,0-2-.35l-.71-1.74a1.65,1.65,0,0,0-1.54-1Z" style="fill:#005dbd"/><path d="M46.13,27.33a.27.27,0,0,1-.12,0l-1.71-.7a.29.29,0,0,1-.18-.33l.48-2-.48-.4a7.36,7.36,0,0,1-.93-.92l-.4-.46-2.07.47h-.08l-.11,0a.33.33,0,0,1-.16-.15l-.71-1.7a.27.27,0,0,1,.12-.34l1.79-1.11L41.51,19a6.67,6.67,0,0,1,0-1.34l.06-.62L39.75,15.9a.28.28,0,0,1-.12-.35l.71-1.69a.29.29,0,0,1,.28-.18l2.11.47.39-.47a7.25,7.25,0,0,1,1-1l.48-.4-.48-2.06a.29.29,0,0,1,.17-.33L46,9.23a.37.37,0,0,1,.24,0,.24.24,0,0,1,.13.11l1.12,1.78.62-.06c.24,0,.48,0,.73,0s.42,0,.63,0l.61,0,1.13-1.78a.3.3,0,0,1,.26-.14l.12,0,1.71.7a.28.28,0,0,1,.17.33l-.47,2,.49.39a7.19,7.19,0,0,1,1,1l.39.47,2.06-.47H57l.11,0a.28.28,0,0,1,.16.16L58,15.51a.28.28,0,0,1-.12.35L56.05,17l.06.62a6,6,0,0,1,0,1.34l0,.62,1.79,1.11A.27.27,0,0,1,58,21l-.72,1.71a.28.28,0,0,1-.27.18l-2.14-.48-.39.48a7.2,7.2,0,0,1-1,.95l-.48.39.48,2.05a.3.3,0,0,1-.18.33l-1.71.7a.25.25,0,0,1-.24,0,.3.3,0,0,1-.14-.11L50.1,25.41l-.61.06c-.23,0-.45,0-.68,0s-.46,0-.69,0l-.6-.06-1.13,1.77A.31.31,0,0,1,46.13,27.33Z" style="fill:#bed5eb"/><path d="M51.71,10.35l.62.25-.19.83-.28,1.22,1,.79a6.33,6.33,0,0,1,.87.85l.78.94L55.67,15l.89-.2.25.58-.75.46L55,16.44l.12,1.24a7.49,7.49,0,0,1,0,1.16L55,20.07l1,.66.75.46-.24.58-.89-.21-1.2-.27-.79.95a5.87,5.87,0,0,1-.83.82l-1,.79.28,1.2.19.85-.62.26-.47-.76-.66-1-1.22.11a5.83,5.83,0,0,1-.59,0,5.68,5.68,0,0,1-.59,0L47,24.36l-.66,1-.48.77-.62-.26.19-.84.29-1.21-1-.79a6.09,6.09,0,0,1-.81-.79l-.78-.93L42,21.61l-.91.2-.24-.57.73-.45,1.07-.66-.13-1.25a5.53,5.53,0,0,1,0-1.15l.11-1.23-1-.65-.77-.48.24-.58.88.2,1.2.27.79-.95a5.78,5.78,0,0,1,.82-.82l1-.79-.28-1.21-.2-.86.62-.25.47.75.66,1,1.24-.13q.32,0,.63,0a4.89,4.89,0,0,1,.54,0l1.21.1.66-1,.49-.78m-.27-2.17a1.29,1.29,0,0,0-1.1.61l-.81,1.26q-.36,0-.72,0a7.55,7.55,0,0,0-.83.05l-.79-1.26a1.3,1.3,0,0,0-.6-.51,1.43,1.43,0,0,0-.5-.09,1.24,1.24,0,0,0-.5.1L43.87,9a1.29,1.29,0,0,0-.77,1.47L43.44,12A8,8,0,0,0,42.35,13l-1.44-.33-.29,0a1.29,1.29,0,0,0-1.2.79l-.71,1.7a1.26,1.26,0,0,0,.51,1.58l1.28.8a8.69,8.69,0,0,0,0,1.53l-1.26.78a1.28,1.28,0,0,0-.51,1.58l.71,1.69a1.28,1.28,0,0,0,.71.7,1.34,1.34,0,0,0,.49.1,1.55,1.55,0,0,0,.29,0l1.48-.33a7.52,7.52,0,0,0,1.07,1l-.34,1.45a1.28,1.28,0,0,0,.77,1.47l1.71.71a1.53,1.53,0,0,0,.5.1,1.32,1.32,0,0,0,1.11-.61L48,26.46a6.79,6.79,0,0,0,.78,0,6.51,6.51,0,0,0,.77,0l.8,1.26a1.3,1.3,0,0,0,.6.51,1.3,1.3,0,0,0,1,0l1.71-.71a1.28,1.28,0,0,0,.77-1.47l-.34-1.45a8.09,8.09,0,0,0,1.1-1.09l1.46.34a1.53,1.53,0,0,0,.3,0,1.31,1.31,0,0,0,1.2-.79l.7-1.7a1.26,1.26,0,0,0-.5-1.58L57.11,19a7.92,7.92,0,0,0,0-1.54l1.27-.78a1.28,1.28,0,0,0,.51-1.59l-.71-1.69a1.3,1.3,0,0,0-.7-.7,1.41,1.41,0,0,0-.49-.09l-.3,0L55.23,13a10,10,0,0,0-1.14-1.12l.33-1.42A1.28,1.28,0,0,0,53.65,9l-1.71-.7a1.31,1.31,0,0,0-.5-.1Z" style="fill:#005dbd"/><path d="M16.83,35.52a1.26,1.26,0,0,1-1.26-1.05L15,31.3l-.59-.18a13.84,13.84,0,0,1-2.27-.93l-.54-.28L9,31.79a1.33,1.33,0,0,1-.75.23,1.3,1.3,0,0,1-.91-.37L5,29.38a1.24,1.24,0,0,1-.14-1.62l1.89-2.59-.31-.56a13.25,13.25,0,0,1-1-2.3l-.18-.58-3.23-.55A1.26,1.26,0,0,1,1,19.94V16.73a1.26,1.26,0,0,1,1.07-1.24L5.24,15l.18-.59a13.17,13.17,0,0,1,1-2.32l.29-.55L4.76,8.85A1.24,1.24,0,0,1,4.9,7.24L7.21,5a1.24,1.24,0,0,1,.91-.38,1.21,1.21,0,0,1,.74.24L11.49,6.7,12,6.41a13.31,13.31,0,0,1,2.34-1L15,5.25l.55-3.2a1.28,1.28,0,0,1,1.27-1H20a1.28,1.28,0,0,1,1.27,1l.53,3.15.6.18a13.58,13.58,0,0,1,2.43,1l.54.29L28,4.78a1.33,1.33,0,0,1,.75-.23,1.26,1.26,0,0,1,.9.37L32,7.2a1.22,1.22,0,0,1,.14,1.61l-1.89,2.61.29.56a12.68,12.68,0,0,1,1,2.31l.19.59,3.19.53a1.24,1.24,0,0,1,1.06,1.23v3.22a1.27,1.27,0,0,1-1.07,1.25l-3.2.52-.18.6a13.71,13.71,0,0,1-1,2.31l-.29.55,1.89,2.62A1.23,1.23,0,0,1,32,29.32l-2.3,2.28a1.3,1.3,0,0,1-.91.37,1.33,1.33,0,0,1-.75-.23l-2.64-1.87-.54.28a13.69,13.69,0,0,1-2.34,1l-.59.18-.54,3.17a1.28,1.28,0,0,1-1.27,1.06Z" style="fill:#bed5eb"/><path d="M20,2a.27.27,0,0,1,.28.22l.43,2.53L20.94,6l1.2.35a13.83,13.83,0,0,1,2.25.92l1.08.57,1-.71L28.62,5.6a.21.21,0,0,1,.16,0,.26.26,0,0,1,.2.08l2.31,2.28a.24.24,0,0,1,0,.31l-1.53,2.11-.73,1,.59,1.1a11.94,11.94,0,0,1,.9,2.14l.37,1.17,1.21.2,2.59.44a.24.24,0,0,1,.22.25v3.21a.27.27,0,0,1-.23.26l-2.59.43-1.23.2-.36,1.18a12.87,12.87,0,0,1-.9,2.14L29,25.17l.73,1L31.3,28.3a.23.23,0,0,1,0,.31L29,30.88a.29.29,0,0,1-.21.09.32.32,0,0,1-.17,0l-2.14-1.51-1-.71-1.08.57a12.62,12.62,0,0,1-2.18.89L21,30.52l-.21,1.21-.44,2.57a.27.27,0,0,1-.28.22H16.83a.27.27,0,0,1-.28-.22l-.43-2.56-.2-1.22-1.18-.36a12.76,12.76,0,0,1-2.11-.86l-1.08-.56-1,.7L8.38,31a.21.21,0,0,1-.16.05.26.26,0,0,1-.2-.08L5.71,28.66a.24.24,0,0,1,0-.3L7.2,26.27l.75-1-.61-1.11A11.94,11.94,0,0,1,6.44,22l-.37-1.17-1.21-.2L2.23,20.2A.28.28,0,0,1,2,19.94V16.73a.28.28,0,0,1,.23-.26l2.57-.42L6,15.84l.36-1.18a11.87,11.87,0,0,1,.88-2.14l.58-1.1-.72-1L5.57,8.27A.23.23,0,0,1,5.6,8L7.92,5.67a.28.28,0,0,1,.2-.08.27.27,0,0,1,.16,0L10.4,7.15l1,.72,1.09-.58a12.65,12.65,0,0,1,2.16-.9L15.83,6,16,4.82l.45-2.6A.27.27,0,0,1,16.77,2H20m0-2H16.77a2.26,2.26,0,0,0-2.25,1.88l-.45,2.6a15.63,15.63,0,0,0-2.51,1L9.44,4a2.29,2.29,0,0,0-2.94.25L4.2,6.53A2.24,2.24,0,0,0,4,9.44l1.54,2.14a14.16,14.16,0,0,0-1,2.49l-2.56.43A2.26,2.26,0,0,0,0,16.73v3.21a2.26,2.26,0,0,0,1.91,2.23l2.62.44a13.22,13.22,0,0,0,1.06,2.48L4.07,27.18a2.24,2.24,0,0,0,.24,2.91l2.3,2.27A2.25,2.25,0,0,0,8.22,33a2.21,2.21,0,0,0,1.32-.42l2.17-1.52a15.21,15.21,0,0,0,2.44,1l.43,2.56a2.28,2.28,0,0,0,2.25,1.89h3.26a2.27,2.27,0,0,0,2.25-1.89l.44-2.56a15.32,15.32,0,0,0,2.52-1l2.13,1.51a2.26,2.26,0,0,0,1.33.42,2.29,2.29,0,0,0,1.61-.66L32.67,30a2.22,2.22,0,0,0,.25-2.9L31.39,25a14.92,14.92,0,0,0,1-2.49L35,22.09a2.26,2.26,0,0,0,1.91-2.23V16.65A2.23,2.23,0,0,0,35,14.43L32.45,14a15.06,15.06,0,0,0-1-2.49l1.52-2.11a2.24,2.24,0,0,0-.24-2.91l-2.3-2.27a2.27,2.27,0,0,0-1.61-.66A2.21,2.21,0,0,0,27.46,4L25.31,5.48A13.47,13.47,0,0,0,22.7,4.42l-.43-2.54A2.26,2.26,0,0,0,20,0Z" style="fill:#005dbd"/><ellipse cx="41.55" cy="41.74" rx="4.27" ry="4.2" style="fill:#fff"/><path d="M41.55,38.53a3.21,3.21,0,1,1-3.27,3.21,3.24,3.24,0,0,1,3.27-3.21m0-2a5.21,5.21,0,1,0,5.26,5.21,5.24,5.24,0,0,0-5.26-5.21Z" style="fill:#005dbd"/><path d="M48.8,21.16a2.91,2.91,0,1,1,3-2.91A2.94,2.94,0,0,1,48.8,21.16Z" style="fill:#fff;fill-rule:evenodd"/><path d="M48.8,16.35a1.91,1.91,0,1,1-2,1.9,1.93,1.93,0,0,1,2-1.9m0-2a3.91,3.91,0,1,0,4,3.9,3.92,3.92,0,0,0-4-3.9Z" style="fill:#005dbd"/><path d="M18.47,25.1a6.83,6.83,0,1,1,6.91-6.83A6.88,6.88,0,0,1,18.47,25.1Z" style="fill:#fff;fill-rule:evenodd"/><path d="M18.47,12.44a5.83,5.83,0,1,1-5.91,5.83,5.87,5.87,0,0,1,5.91-5.83m0-2a7.83,7.83,0,1,0,7.91,7.83,7.87,7.87,0,0,0-7.91-7.83Z" style="fill:#005dbd"/><path d="M52.75,36.45l-1.91.09a10.65,10.65,0,0,0-1.14-1.61l.76-1.74a1.63,1.63,0,0,0-.63-2l-2-1.26a1.61,1.61,0,0,0-1.25-.22,1.57,1.57,0,0,0-.87.5l-1.29,1.4a10.68,10.68,0,0,0-2-.35l-.71-1.74a1.66,1.66,0,0,0-1.89-1l-2.31.5a1.64,1.64,0,0,0-1.31,1.69l.09,1.91a10,10,0,0,0-1.62,1.13L32.9,33a1.68,1.68,0,0,0-2,.63l-1.28,2a1.62,1.62,0,0,0,.28,2.1L31.29,39A9.89,9.89,0,0,0,31,40.9l-1.76.7a1.65,1.65,0,0,0-1,1.88l.5,2.28a1.66,1.66,0,0,0,1.71,1.29L32.34,47a10.36,10.36,0,0,0,1.14,1.6l-.75,1.72a1.62,1.62,0,0,0,.63,2l2,1.26a1.63,1.63,0,0,0,1.25.22,1.57,1.57,0,0,0,.87-.5l1.31-1.42a10,10,0,0,0,1.89.33L41.38,54a1.65,1.65,0,0,0,1.9,1l2.31-.5a1.64,1.64,0,0,0,1.31-1.68l-.09-1.89a11.38,11.38,0,0,0,1.62-1.12l1.76.74a1.67,1.67,0,0,0,1,.1h0a1.68,1.68,0,0,0,1-.72l1.28-2a1.64,1.64,0,0,0-.28-2.11l-1.42-1.27a10.72,10.72,0,0,0,.35-1.93l1.77-.7A1.65,1.65,0,0,0,55,40l-.51-2.29A1.63,1.63,0,0,0,52.75,36.45Z" style="fill:none"/><path d="M58.38,19.81,57.11,19a7.92,7.92,0,0,0,0-1.54l1.27-.78a1.28,1.28,0,0,0,.51-1.59l-.71-1.69a1.3,1.3,0,0,0-.7-.7,1.34,1.34,0,0,0-.79-.06L55.23,13a10,10,0,0,0-1.14-1.12l.33-1.42A1.28,1.28,0,0,0,53.65,9l-1.71-.7a1.3,1.3,0,0,0-1.6.51l-.81,1.26a8,8,0,0,0-1.55,0l-.79-1.26a1.3,1.3,0,0,0-.6-.51,1.29,1.29,0,0,0-1,0L43.87,9a1.29,1.29,0,0,0-.77,1.47L43.44,12A8,8,0,0,0,42.35,13l-1.44-.33a1.3,1.3,0,0,0-1.49.76l-.71,1.7a1.26,1.26,0,0,0,.51,1.58l1.28.8a8.69,8.69,0,0,0,0,1.53l-1.26.78a1.28,1.28,0,0,0-.51,1.58l.71,1.69a1.28,1.28,0,0,0,.71.7,1.3,1.3,0,0,0,.78.06l1.48-.33a7.52,7.52,0,0,0,1.07,1l-.34,1.45a1.28,1.28,0,0,0,.77,1.47l1.71.71a1.33,1.33,0,0,0,1.61-.51L48,26.46a8,8,0,0,0,1.55,0l.8,1.26a1.3,1.3,0,0,0,.6.51h0a1.33,1.33,0,0,0,1,0l1.71-.71a1.28,1.28,0,0,0,.77-1.47l-.34-1.45a8.09,8.09,0,0,0,1.1-1.09l1.46.34a1.32,1.32,0,0,0,1.5-.76l.7-1.7A1.26,1.26,0,0,0,58.38,19.81Z" style="fill:none"/><path d="M35,14.42,32.45,14a15.06,15.06,0,0,0-1-2.49l1.52-2.11a2.24,2.24,0,0,0-.24-2.91l-2.3-2.27a2.27,2.27,0,0,0-1.61-.66A2.21,2.21,0,0,0,27.46,4L25.31,5.48A13.47,13.47,0,0,0,22.7,4.42l-.43-2.54A2.26,2.26,0,0,0,20,0H16.77a2.26,2.26,0,0,0-2.25,1.88l-.45,2.6a15.63,15.63,0,0,0-2.51,1L9.44,4a2.29,2.29,0,0,0-2.94.25L4.2,6.53A2.24,2.24,0,0,0,4,9.44l1.54,2.14a14.16,14.16,0,0,0-1,2.49l-2.56.43A2.26,2.26,0,0,0,0,16.73v3.21a2.26,2.26,0,0,0,1.91,2.23l2.62.44a13.22,13.22,0,0,0,1.06,2.48L4.07,27.18a2.24,2.24,0,0,0,.24,2.91l2.3,2.27A2.25,2.25,0,0,0,8.22,33a2.21,2.21,0,0,0,1.32-.42l2.17-1.52a15.21,15.21,0,0,0,2.44,1l.43,2.56a2.28,2.28,0,0,0,2.25,1.89h3.26a2.27,2.27,0,0,0,2.25-1.89l.44-2.56a15.32,15.32,0,0,0,2.52-1l2.13,1.51a2.26,2.26,0,0,0,1.33.42h0a2.29,2.29,0,0,0,1.61-.66L32.67,30a2.22,2.22,0,0,0,.25-2.9L31.39,25a14.92,14.92,0,0,0,1-2.49L35,22.09a2.26,2.26,0,0,0,1.91-2.23V16.65A2.24,2.24,0,0,0,35,14.42Z" style="fill:none"/></g></g></svg>