<svg xmlns="http://www.w3.org/2000/svg" width="46.81" height="63.19" viewBox="0 0 46.81 63.19">
  <metadata><?xpacket begin="﻿" id="W5M0MpCehiHzreSzNTczkc9d"?>
<x:xmpmeta xmlns:x="adobe:ns:meta/" x:xmptk="Adobe XMP Core 5.6-c138 79.159824, 2016/09/14-01:09:01        ">
   <rdf:RDF xmlns:rdf="http://www.w3.org/1999/02/22-rdf-syntax-ns#">
      <rdf:Description rdf:about=""/>
   </rdf:RDF>
</x:xmpmeta>
                                                                                                    
                                                                                                    
                                                                                                    
                                                                                                    
                                                                                                    
                                                                                                    
                                                                                                    
                                                                                                    
                                                                                                    
                                                                                                    
                                                                                                    
                                                                                                    
                                                                                                    
                                                                                                    
                                                                                                    
                                                                                                    
                                                                                                    
                                                                                                    
                                                                                                    
                                                                                                    
                           
<?xpacket end="w"?></metadata>
<defs>
    <style>
      .cls-1 {
        fill: #005dbd;
        fill-rule: evenodd;
      }
    </style>
  </defs>
  <path id="growth-icon" class="cls-1" d="M1549.75,7306.67a1.48,1.48,0,0,1-2.02-.58l-1.72-3.08c-11.58,29.82-34.72,40.62-35.72,41.08a1.588,1.588,0,0,1-.62.14,1.493,1.493,0,0,1-.62-2.85c0.23-.11,22.75-10.65,33.99-38.94l-2.76,1.52a1.493,1.493,0,0,1-1.45-2.61l6.1-3.37a1.515,1.515,0,0,1,2.03.59l3.37,6.08A1.482,1.482,0,0,1,1549.75,7306.67Zm5.23-4.54a1.492,1.492,0,0,0-1,1.4L1554,7361h1S1554.98,7304.09,1554.98,7302.13Zm-6.47,12.82a1.487,1.487,0,0,1,1.49,1.49V7361h-3l0.01-44.56A1.49,1.49,0,0,1,1548.51,7314.95Zm-6.97,11.91a1.487,1.487,0,0,1,1.49,1.49L1543,7361h-3l0.04-32.65A1.49,1.49,0,0,1,1541.54,7326.86Zm-27.89,25.24c0.83,0,1.35,1.08,1.35,1.9v7h-3l0.16-7.41A1.494,1.494,0,0,1,1513.65,7352.1Zm6.97-2.83a1.5,1.5,0,0,1,1.5,1.49L1522,7361h-3l0.13-10.24A1.494,1.494,0,0,1,1520.62,7349.27Zm6.97-3.78a1.5,1.5,0,0,1,1.5,1.49L1529,7361h-3l0.1-14.02A1.494,1.494,0,0,1,1527.59,7345.49Zm6.97-7.72a1.5,1.5,0,0,1,1.5,1.49L1536,7361h-3l0.07-21.74A1.494,1.494,0,0,1,1534.56,7337.77Z" transform="translate(-1508.19 -7297.81)"/>
</svg>
