<svg xmlns="http://www.w3.org/2000/svg" width="14" height="17" viewBox="0 0 14 17">
  <metadata><?xpacket begin="﻿" id="W5M0MpCehiHzreSzNTczkc9d"?>
<x:xmpmeta xmlns:x="adobe:ns:meta/" x:xmptk="Adobe XMP Core 5.6-c138 79.159824, 2016/09/14-01:09:01        ">
   <rdf:RDF xmlns:rdf="http://www.w3.org/1999/02/22-rdf-syntax-ns#">
      <rdf:Description rdf:about=""/>
   </rdf:RDF>
</x:xmpmeta>
                                                                                                    
                                                                                                    
                                                                                                    
                                                                                                    
                                                                                                    
                                                                                                    
                                                                                                    
                                                                                                    
                                                                                                    
                                                                                                    
                                                                                                    
                                                                                                    
                                                                                                    
                                                                                                    
                                                                                                    
                                                                                                    
                                                                                                    
                                                                                                    
                                                                                                    
                                                                                                    
                           
<?xpacket end="w"?></metadata>
<defs>
    <style>
      .cls-1 {
        fill: #bfbfbf;
        fill-rule: evenodd;
      }
    </style>
  </defs>
  <path id="lock-icon" class="cls-1" d="M791.941,713.242h-1.236v-2.73a3.711,3.711,0,0,0-7.412,0v2.73h-1.234A2.028,2.028,0,0,0,780,715.234v6.774A2.028,2.028,0,0,0,782.059,724h9.882A2.028,2.028,0,0,0,794,722.008v-6.774A2.028,2.028,0,0,0,791.941,713.242Zm-7.276-2.73a2.339,2.339,0,0,1,4.667,0v2.73h-4.667v-2.73h0Zm7.962,11.5a0.675,0.675,0,0,1-.686.663h-9.882a0.676,0.676,0,0,1-.687-0.663v-6.774a0.677,0.677,0,0,1,.687-0.664h9.882a0.676,0.676,0,0,1,.686.664v6.774ZM787,716.5a1.249,1.249,0,0,0-1.27,1.228,1.22,1.22,0,0,0,.582,1.033v1.457a0.687,0.687,0,0,0,1.373,0v-1.456a1.221,1.221,0,0,0,.585-1.034A1.249,1.249,0,0,0,787,716.5Z" transform="translate(-780 -707)"/>
</svg>
