<svg xmlns="http://www.w3.org/2000/svg" width="49.781" height="55" viewBox="0 0 49.781 55">
  <metadata><?xpacket begin="﻿" id="W5M0MpCehiHzreSzNTczkc9d"?>
<x:xmpmeta xmlns:x="adobe:ns:meta/" x:xmptk="Adobe XMP Core 5.6-c138 79.159824, 2016/09/14-01:09:01        ">
   <rdf:RDF xmlns:rdf="http://www.w3.org/1999/02/22-rdf-syntax-ns#">
      <rdf:Description rdf:about=""/>
   </rdf:RDF>
</x:xmpmeta>
                                                                                                    
                                                                                                    
                                                                                                    
                                                                                                    
                                                                                                    
                                                                                                    
                                                                                                    
                                                                                                    
                                                                                                    
                                                                                                    
                                                                                                    
                                                                                                    
                                                                                                    
                                                                                                    
                                                                                                    
                                                                                                    
                                                                                                    
                                                                                                    
                                                                                                    
                                                                                                    
                           
<?xpacket end="w"?></metadata>
<defs>
    <style>
      .cls-1 {
        fill: #fff;
        fill-rule: evenodd;
      }
    </style>
  </defs>
  <path id="medal-icon" class="cls-1" d="M389.992,9237.14a10.875,10.875,0,1,1-10.971,10.88,10.937,10.937,0,0,1,10.971-10.88m0-2.2a13.075,13.075,0,1,0,13.16,13.08,13.117,13.117,0,0,0-13.16-13.08h0Zm3.231-3.43h-0.01a0.235,0.235,0,0,1-.08-0.02c-0.219-.04-0.438-0.08-0.667-0.11,0.229,0.03.448,0.07,0.667,0.12s0.438,0.09.657,0.14C393.6,9231.59,393.412,9231.55,393.223,9231.51Zm-0.09-.02v0.01a0.2,0.2,0,0,1,.08.01A0.235,0.235,0,0,1,393.133,9231.49Zm21.614,45.49-8.572-18.83a18.757,18.757,0,0,0,2.947-10.13A19.009,19.009,0,0,0,396.1,9230q-0.747-.255-1.523-0.45l-0.817-.18c-0.288-.05-0.567-0.11-0.856-0.15a20.134,20.134,0,0,0-2.917-.22,19.89,19.89,0,0,0-2.907.22c-0.289.04-.568,0.1-0.856,0.15s-0.548.12-.817,0.18q-0.776.2-1.523,0.45a19.008,19.008,0,0,0-13.023,18.02,18.758,18.758,0,0,0,2.948,10.13l-8.573,18.83a1.468,1.468,0,0,0,1.325,2.08,1.41,1.41,0,0,0,.5-0.09l6.382-2.33,2.32,6.4a1.482,1.482,0,0,0,1.314.96h0.06a1.47,1.47,0,0,0,1.324-.84l7.437-16.42a18.83,18.83,0,0,0,8.184,0l7.447,16.42a1.463,1.463,0,0,0,2.7-.12l2.32-6.4,6.381,2.33a1.419,1.419,0,0,0,.5.09A1.468,1.468,0,0,0,414.747,9276.98ZM377.2,9280.6l-1.7-4.71-0.757-2.06-2.051.75-4.739,1.72,7.338-16.12a19,19,0,0,0,8.532,5.83Zm12.783-15.77a16.97,16.97,0,0,1-13.67-6.9l-0.049-.08-0.568-.92a16.967,16.967,0,0,1,8.841-24.83h0.01a12.232,12.232,0,0,1,1.344-.4c0.239-.06.478-0.11,0.717-0.16a17.021,17.021,0,0,1,5.854-.16c0.229,0.03.448,0.07,0.667,0.11a0.235,0.235,0,0,0,.08.02h0.01c0.189,0.04.378,0.08,0.567,0.13a14.015,14.015,0,0,1,1.942.56c-0.259-.09-0.528-0.17-0.8-0.25a16.891,16.891,0,0,1,11.828,16.15,16.947,16.947,0,0,1-2.489,8.83l-0.568.93-0.04.07A16.971,16.971,0,0,1,389.987,9264.83Zm17.3,9.75-2.05-.75-0.757,2.06-1.713,4.71-6.61-14.59a19,19,0,0,0,8.532-5.83l7.337,16.12Z" transform="translate(-365.094 -9229)"/>
</svg>
