<svg id="pdf-icon" xmlns="http://www.w3.org/2000/svg" width="32" height="23" viewBox="0 0 32 23">
  <metadata><?xpacket begin="﻿" id="W5M0MpCehiHzreSzNTczkc9d"?>
<x:xmpmeta xmlns:x="adobe:ns:meta/" x:xmptk="Adobe XMP Core 5.6-c138 79.159824, 2016/09/14-01:09:01        ">
   <rdf:RDF xmlns:rdf="http://www.w3.org/1999/02/22-rdf-syntax-ns#">
      <rdf:Description rdf:about=""/>
   </rdf:RDF>
</x:xmpmeta>
                                                                                                    
                                                                                                    
                                                                                                    
                                                                                                    
                                                                                                    
                                                                                                    
                                                                                                    
                                                                                                    
                                                                                                    
                                                                                                    
                                                                                                    
                                                                                                    
                                                                                                    
                                                                                                    
                                                                                                    
                                                                                                    
                                                                                                    
                                                                                                    
                                                                                                    
                                                                                                    
                           
<?xpacket end="w"?></metadata>
<defs>
    <style>
      .cls-1 {
        fill: none;
        stroke: #fff;
        stroke-width: 2px;
      }

      .cls-2 {
        fill: #fff;
        fill-rule: evenodd;
      }
    </style>
  </defs>
  <rect id="Rounded_Rectangle_4" data-name="Rounded Rectangle 4" class="cls-1" x="1" y="1" width="30" height="21" rx="2" ry="2"/>
  <path id="PDF" class="cls-2" d="M401.454,1788.9h1.462v-2.71h0.939a2.808,2.808,0,0,0,1.379-.32,2.184,2.184,0,0,0,.847-0.84,2.294,2.294,0,0,0,.278-1.09,2.424,2.424,0,0,0-.59-1.54,2.711,2.711,0,0,0-2.181-.72h-2.134v7.22Zm1.462-6.09h0.672a1.26,1.26,0,0,1,.93.31,1.1,1.1,0,0,1,.3.78,1.137,1.137,0,0,1-.322.82,1.2,1.2,0,0,1-.9.33h-0.672v-2.24Zm4.578,6.09h2.278a7.547,7.547,0,0,0,1.237-.11,3.926,3.926,0,0,0,1.249-.47,2.8,2.8,0,0,0,1.031-1.11,4.689,4.689,0,0,0-.023-3.89,2.8,2.8,0,0,0-1.072-1.1,3.813,3.813,0,0,0-1.24-.44,6.852,6.852,0,0,0-1.182-.1h-2.278v7.22Zm2.3-6a2.264,2.264,0,0,1,1.574.47,1.991,1.991,0,0,1,.656.99,3.392,3.392,0,0,1,0,1.86,2.079,2.079,0,0,1-.656.99,2.314,2.314,0,0,1-1.574.47h-0.836v-4.78h0.836Zm5.094,6h1.462v-3.07H418.8v-1.18h-2.454v-1.75h2.577v-1.22h-4.039v7.22Z" transform="translate(-394 -1774)"/>
</svg>
