<svg xmlns="http://www.w3.org/2000/svg" width="11" height="11" viewBox="0 0 11 11">
  <metadata><?xpacket begin="﻿" id="W5M0MpCehiHzreSzNTczkc9d"?>
<x:xmpmeta xmlns:x="adobe:ns:meta/" x:xmptk="Adobe XMP Core 5.6-c138 79.159824, 2016/09/14-01:09:01        ">
   <rdf:RDF xmlns:rdf="http://www.w3.org/1999/02/22-rdf-syntax-ns#">
      <rdf:Description rdf:about=""/>
   </rdf:RDF>
</x:xmpmeta>
                                                                                                    
                                                                                                    
                                                                                                    
                                                                                                    
                                                                                                    
                                                                                                    
                                                                                                    
                                                                                                    
                                                                                                    
                                                                                                    
                                                                                                    
                                                                                                    
                                                                                                    
                                                                                                    
                                                                                                    
                                                                                                    
                                                                                                    
                                                                                                    
                                                                                                    
                                                                                                    
                           
<?xpacket end="w"?></metadata>
<defs>
    <style>
      .cls-1 {
        fill: #fff;
        fill-rule: evenodd;
      }
    </style>
  </defs>
  <path id="phone-icon" class="cls-1" d="M1201.99,32.678a0.517,0.517,0,0,1-.16.466l-1.55,1.539a0.881,0.881,0,0,1-.27.2,1.061,1.061,0,0,1-.33.1l-0.07.006a1.478,1.478,0,0,1-.15.006,5.207,5.207,0,0,1-.72-0.076,5.474,5.474,0,0,1-1.21-.373,10.146,10.146,0,0,1-1.63-.892,12.1,12.1,0,0,1-1.93-1.631,13.281,13.281,0,0,1-1.35-1.538,10.892,10.892,0,0,1-.86-1.358,7.186,7.186,0,0,1-.49-1.131,5.95,5.95,0,0,1-.22-0.873,2.712,2.712,0,0,1-.05-0.578c0.01-.139.01-0.217,0.01-0.232a1.125,1.125,0,0,1,.11-0.332,0.788,0.788,0,0,1,.2-0.274l1.54-1.55a0.531,0.531,0,0,1,.38-0.163,0.447,0.447,0,0,1,.27.088,0.831,0.831,0,0,1,.19.216l1.25,2.365a0.572,0.572,0,0,1,.06.408,0.724,0.724,0,0,1-.2.372l-0.57.571a0.144,0.144,0,0,0-.04.076,0.4,0.4,0,0,0-.02.088,2.044,2.044,0,0,0,.21.559,5.3,5.3,0,0,0,.43.681,7.885,7.885,0,0,0,.83.925,7.782,7.782,0,0,0,.93.834,5.335,5.335,0,0,0,.68.437,1.762,1.762,0,0,0,.42.169l0.15,0.029a0.218,0.218,0,0,0,.07-0.019,0.209,0.209,0,0,0,.08-0.039l0.66-.676a0.708,0.708,0,0,1,.49-0.187,0.57,0.57,0,0,1,.31.071h0.02l2.24,1.328A0.558,0.558,0,0,1,1201.99,32.678Z" transform="translate(-1191 -24)"/>
</svg>
