<svg id="piggy-icon" xmlns="http://www.w3.org/2000/svg" width="79.844" height="65" viewBox="0 0 79.844 65">
  <metadata><?xpacket begin="﻿" id="W5M0MpCehiHzreSzNTczkc9d"?>
<x:xmpmeta xmlns:x="adobe:ns:meta/" x:xmptk="Adobe XMP Core 5.6-c138 79.159824, 2016/09/14-01:09:01        ">
   <rdf:RDF xmlns:rdf="http://www.w3.org/1999/02/22-rdf-syntax-ns#">
      <rdf:Description rdf:about=""/>
   </rdf:RDF>
</x:xmpmeta>
                                                                                                    
                                                                                                    
                                                                                                    
                                                                                                    
                                                                                                    
                                                                                                    
                                                                                                    
                                                                                                    
                                                                                                    
                                                                                                    
                                                                                                    
                                                                                                    
                                                                                                    
                                                                                                    
                                                                                                    
                                                                                                    
                                                                                                    
                                                                                                    
                                                                                                    
                                                                                                    
                           
<?xpacket end="w"?></metadata>
<defs>
    <style>
      .cls-1 {
        fill: #bed5eb;
      }

      .cls-1, .cls-2 {
        fill-rule: evenodd;
      }

      .cls-2 {
        fill: #005dbd;
      }
    </style>
  </defs>
  <path class="cls-1" d="M444.547,5698.04a5.3,5.3,0,0,0-3.877-3.5,2.341,2.341,0,0,0-2.908,2.14,27.7,27.7,0,0,0-8.44-11.19,37.828,37.828,0,0,0-23.9-8.08,40.154,40.154,0,0,0-14.954,2.85l-11.777-5.87a2.4,2.4,0,0,0-2.622.32,2.34,2.34,0,0,0-.7,2.53l3.582,10.59a27.119,27.119,0,0,0-5.212,7.38h-3.553a5.18,5.18,0,0,0-5.2,5.15v10.31a5.182,5.182,0,0,0,5.2,5.16h3.554a29.769,29.769,0,0,0,11.688,12.45v4.38a6.331,6.331,0,0,0,6.356,6.3h3.6a6.34,6.34,0,0,0,6.305-5.5,42.254,42.254,0,0,0,7.461,0,6.341,6.341,0,0,0,6.305,5.5h3.6a6.331,6.331,0,0,0,6.356-6.3v-4.38c8.824-5.29,14.048-13.7,14.048-22.76,0-.16,0-0.31-0.007-0.47a5.457,5.457,0,0,0,1.689-.27,5.334,5.334,0,0,0,3.107-2.67A5.261,5.261,0,0,0,444.547,5698.04Zm-4.541,1.96a0.6,0.6,0,0,1-.36.31,0.613,0.613,0,0,1-.475-0.03,0.645,0.645,0,0,1-.312-0.36,2.372,2.372,0,0,0-.152-0.35c-0.1-.38-0.208-0.77-0.326-1.15a2.335,2.335,0,0,0,1.208.7,0.644,0.644,0,0,1,.451.41A0.6,0.6,0,0,1,440.006,5700Z" transform="translate(-365 -5674)"/>
  <path class="cls-2" d="M378.705,5677.61l10.431,5.21,1.206,0.6,1.25-.5a37.13,37.13,0,0,1,13.834-2.64,34.77,34.77,0,0,1,22.007,7.43,24.737,24.737,0,0,1,7.548,10l0.3,0.75,0.247,0.79c0.1,0.33.2,0.67,0.286,1.01l0.094,0.34,0.142,0.28a3.669,3.669,0,0,0,.637,1.11l0.007,0.02h-0.28l0.056,3.05,0,0.1c0,0.1,0,.2,0,0.31,0,7.94-4.707,15.51-12.592,20.24l-1.456.88v6.09a3.345,3.345,0,0,1-3.362,3.32h-3.6a3.353,3.353,0,0,1-3.336-2.9l-0.364-2.87-2.874.26c-1.144.1-2.309,0.16-3.462,0.16s-2.317-.06-3.461-0.16l-2.874-.26-0.364,2.87a3.353,3.353,0,0,1-3.336,2.9h-3.6a3.345,3.345,0,0,1-3.362-3.32v-6.09l-1.453-.87a26.689,26.689,0,0,1-10.527-11.21l-0.813-1.71h-5.443a2.186,2.186,0,0,1-2.2-2.16v-10.35a2.186,2.186,0,0,1,2.2-2.16h5.445l0.812-1.72a24.44,24.44,0,0,1,4.645-6.58l1.288-1.32-0.589-1.74-3.09-9.16m-1.076-3.61a2.386,2.386,0,0,0-1.556.58,2.34,2.34,0,0,0-.7,2.53l3.582,10.62a27.21,27.21,0,0,0-5.212,7.4h-3.553a5.182,5.182,0,0,0-5.2,5.16v10.35a5.182,5.182,0,0,0,5.2,5.16h3.554a29.8,29.8,0,0,0,11.688,12.49v4.39a6.342,6.342,0,0,0,6.356,6.32h3.6a6.35,6.35,0,0,0,6.305-5.52c1.239,0.11,2.485.17,3.73,0.17s2.491-.06,3.731-0.17a6.349,6.349,0,0,0,6.305,5.52h3.6a6.342,6.342,0,0,0,6.356-6.32v-4.39c8.824-5.3,14.048-13.74,14.048-22.82,0-.16,0-0.31-0.007-0.47a5.194,5.194,0,0,0,1.689-.28,5.327,5.327,0,0,0-.477-10.26,2.514,2.514,0,0,0-.542-0.06,2.368,2.368,0,0,0-2.311,1.82,2.306,2.306,0,0,0-.055.38,27.865,27.865,0,0,0-8.439-11.22,37.79,37.79,0,0,0-23.9-8.1,40.161,40.161,0,0,0-14.954,2.86l-11.777-5.89a2.366,2.366,0,0,0-1.066-.25h0Zm61.82,26.28a0.556,0.556,0,0,1-.278-0.07,0.612,0.612,0,0,1-.312-0.36,2.258,2.258,0,0,0-.152-0.34c-0.1-.39-0.207-0.77-0.326-1.16a2.416,2.416,0,0,0,1.207.71,0.607,0.607,0,0,1,.418.87,0.615,0.615,0,0,1-.36.32,0.721,0.721,0,0,1-.2.03h0Z" transform="translate(-365 -5674)"/>
  <path class="cls-2" d="M413.571,5687.26a27.051,27.051,0,0,0-14.927,0,1.434,1.434,0,0,0-1.053,1.87,1.754,1.754,0,0,0,2.15.91,23.212,23.212,0,0,1,12.732,0,1.739,1.739,0,0,0,.549.08,1.693,1.693,0,0,0,1.6-.99A1.434,1.434,0,0,0,413.571,5687.26Zm-25.676,9.31a2.842,2.842,0,1,0,2.945,2.84A2.894,2.894,0,0,0,387.9,5696.57Z" transform="translate(-365 -5674)"/>
</svg>
