<svg xmlns="http://www.w3.org/2000/svg" width="45.969" height="73.94" viewBox="0 0 45.969 73.94">
  <metadata><?xpacket begin="﻿" id="W5M0MpCehiHzreSzNTczkc9d"?>
<x:xmpmeta xmlns:x="adobe:ns:meta/" x:xmptk="Adobe XMP Core 5.6-c138 79.159824, 2016/09/14-01:09:01        ">
   <rdf:RDF xmlns:rdf="http://www.w3.org/1999/02/22-rdf-syntax-ns#">
      <rdf:Description rdf:about=""/>
   </rdf:RDF>
</x:xmpmeta>
                                                                                                    
                                                                                                    
                                                                                                    
                                                                                                    
                                                                                                    
                                                                                                    
                                                                                                    
                                                                                                    
                                                                                                    
                                                                                                    
                                                                                                    
                                                                                                    
                                                                                                    
                                                                                                    
                                                                                                    
                                                                                                    
                                                                                                    
                                                                                                    
                                                                                                    
                                                                                                    
                           
<?xpacket end="w"?></metadata>
<defs>
    <style>
      .cls-1 {
        fill: #005dbd;
        fill-rule: evenodd;
      }
    </style>
  </defs>
  <path id="rairoad-icon" class="cls-1" d="M635.541,7287.05a1.581,1.581,0,0,0-1.389,1.74l0.23,2.15a42.781,42.781,0,0,0-8.345,1.83l-0.639-2.18a1.56,1.56,0,1,0-2.988.9l0.689,2.35a43.454,43.454,0,0,0-8.7,4.76l-1.569-2.17a1.553,1.553,0,0,0-2.179-.34,1.6,1.6,0,0,0-.34,2.2l1.6,2.19a44.052,44.052,0,0,0-6.486,6.53l-2.069-1.51a1.564,1.564,0,0,0-2.178.36,1.588,1.588,0,0,0,.35,2.2l2.018,1.46a43.362,43.362,0,0,0-4.4,7.95l-2.618-.96a1.572,1.572,0,0,0-1.059,2.96l2.548,0.93a43.874,43.874,0,0,0-1.9,7.71l-2.8-.39a1.575,1.575,0,0,0-.43,3.12l2.868,0.4c-0.1,1.2-.15,2.4-0.15,3.63v3.91l-2.958-.11a1.576,1.576,0,0,0-.11,3.15l3.068,0.11v7.74h-2.6a1.565,1.565,0,0,0,0,3.13h2.6v8.2h3.118v-8.19h7.636V7361h3.118v-8.19h3.328a1.57,1.57,0,0,0,0-3.14h-3.328v-7.25l2.838,0.1a1.576,1.576,0,0,0,.11-3.15l-2.948-.1v-3.07c0-1.01.05-2.02,0.15-3.02l2.868,0.41a1.575,1.575,0,0,0,.43-3.12l-2.829-.4a30.513,30.513,0,0,1,1.39-4.75l2.588,0.95a1.569,1.569,0,0,0,1.069-2.95l-2.378-.87a31.284,31.284,0,0,1,2.648-4.29l2.169,1.57a1.554,1.554,0,0,0,2.178-.35,1.6,1.6,0,0,0-.349-2.2l-2-1.45a30.18,30.18,0,0,1,3.3-3.11L622,7314.4a1.553,1.553,0,0,0,2.179.34,1.6,1.6,0,0,0,.339-2.2l-1.279-1.75a30.664,30.664,0,0,1,4.188-2.27l0.619,2.11a1.559,1.559,0,1,0,2.988-.89l-0.689-2.34a29.49,29.49,0,0,1,5.656-1.22l0.26,2.46a1.552,1.552,0,0,0,.74,1.18v-22.06A1.54,1.54,0,0,0,635.541,7287.05Zm-29.181,62.62h-7.636v-7.63l7.636,0.27v7.36Zm0-13.47v2.96l-7.636-.27v-4.02c0-1.08.041-2.14,0.12-3.19l7.7,1.07A32.934,32.934,0,0,0,606.36,7336.2Zm0.639-6.56-7.8-1.09a41.357,41.357,0,0,1,1.739-7.07l7.605,2.78A33.073,33.073,0,0,0,607,7329.64Zm2.809-8.27-7.726-2.83a40.482,40.482,0,0,1,3.988-7.17l6.816,4.95A33.134,33.134,0,0,0,609.808,7321.37Zm5.056-7.49-6.905-5.02a40.365,40.365,0,0,1,5.786-5.83l5.127,7.06A33.482,33.482,0,0,0,614.864,7313.88Zm6.536-5.63-5.156-7.12a40.421,40.421,0,0,1,7.745-4.26l2.538,8.61A32.453,32.453,0,0,0,621.4,7308.25Zm8.055-3.87-2.528-8.6a40.87,40.87,0,0,1,7.785-1.71l0.949,8.98A32.19,32.19,0,0,0,629.455,7304.38Z" transform="translate(-591.031 -7287.06)"/>
</svg>
