<svg xmlns="http://www.w3.org/2000/svg" width="63.91" height="63.91" viewBox="0 0 63.91 63.91">
  <metadata><?xpacket begin="﻿" id="W5M0MpCehiHzreSzNTczkc9d"?>
<x:xmpmeta xmlns:x="adobe:ns:meta/" x:xmptk="Adobe XMP Core 5.6-c138 79.159824, 2016/09/14-01:09:01        ">
   <rdf:RDF xmlns:rdf="http://www.w3.org/1999/02/22-rdf-syntax-ns#">
      <rdf:Description rdf:about=""/>
   </rdf:RDF>
</x:xmpmeta>
                                                                                                    
                                                                                                    
                                                                                                    
                                                                                                    
                                                                                                    
                                                                                                    
                                                                                                    
                                                                                                    
                                                                                                    
                                                                                                    
                                                                                                    
                                                                                                    
                                                                                                    
                                                                                                    
                                                                                                    
                                                                                                    
                                                                                                    
                                                                                                    
                                                                                                    
                                                                                                    
                           
<?xpacket end="w"?></metadata>
<defs>
    <style>
      .cls-1 {
        fill: #005dbd;
        fill-rule: evenodd;
      }
    </style>
  </defs>
  <path id="repair-icon" class="cls-1" d="M1231.05,7345.61a1.528,1.528,0,0,0-1.52,1.53,1.52,1.52,0,0,0,3.04,0A1.528,1.528,0,0,0,1231.05,7345.61Zm6.08,0a1.528,1.528,0,0,0-1.52,1.53,1.511,1.511,0,0,0,1.52,1.51H1249v-3.04h-11.87Zm2.66-29.39a4.81,4.81,0,0,0,.42.48,5.312,5.312,0,0,0,7.57-.05,5.258,5.258,0,0,0,1.22.93v-16.89a3.359,3.359,0,0,0-.51.32,5.3,5.3,0,0,0-7.6-1.53,5.943,5.943,0,0,0-4.52-2.5A5.8,5.8,0,0,0,1232,7299a3.411,3.411,0,0,0-3.23-2.02,5.318,5.318,0,0,0-5.32,5.32v6.83h-14.94a13.908,13.908,0,0,0-5.92-4.95,13.748,13.748,0,0,0-17.31,5.7,1.53,1.53,0,0,0,1.3,2.29c0.72,0.01,1.43.01,1.43,0.01h5.45l2.15,2.15v4.82l-2.15,2.14h-6.87a1.541,1.541,0,0,0-1.32.76,1.522,1.522,0,0,0,.01,1.53,13.687,13.687,0,0,0,23.23.76h8.02a10.805,10.805,0,0,0,2.42,3.74l5.31,5.3a7.541,7.541,0,0,1,2.22,5.37v0.78h-1.51a1.528,1.528,0,0,0-1.52,1.53v19.8h3.03v-18.28H1249v-3.05h-19.47v-0.78a10.568,10.568,0,0,0-3.12-7.52l-5.3-5.3a7.624,7.624,0,0,1-2.23-5.38v-0.77a7.585,7.585,0,0,1,7.6-7.6h11.98a6.092,6.092,0,0,1-1.59,2.77,6.027,6.027,0,0,1-4.3,1.78H1228a1.527,1.527,0,0,0-.26,3.03,9.413,9.413,0,0,1,6.17,3.92,0.02,0.02,0,0,0,.01.02,9.428,9.428,0,0,1,1.67,5.34l0.02,2.9a1.511,1.511,0,0,0,1.52,1.51h0.01a1.513,1.513,0,0,0,1.51-1.53l-0.01-2.9a12.41,12.41,0,0,0-.94-4.68H1249v-3.05h-13.09a12.663,12.663,0,0,0-1.6-1.67,9.071,9.071,0,0,0,4.71-2.52A7.137,7.137,0,0,0,1239.79,7316.22Zm1.91-12.41a2.28,2.28,0,0,1,4.56,0v9.13a2.277,2.277,0,0,1-3.89,1.6,2.183,2.183,0,0,1-.67-1.6v-9.13Zm-35.34,18.24a10.67,10.67,0,0,1-16.68,2.29h4.41a1.53,1.53,0,0,0,1.08-.45l3.03-3.04a1.507,1.507,0,0,0,.45-1.07v-6.08a1.513,1.513,0,0,0-.45-1.08l-3.03-3.04a1.53,1.53,0,0,0-1.08-.45h-4.41a10.738,10.738,0,0,1,7.45-3.04,10.47,10.47,0,0,1,4.24.89A10.66,10.66,0,0,1,1206.36,7322.05Zm11.6-8.66a10.726,10.726,0,0,0-2.12,6.39v0.77c0,0.25.01,0.5,0.03,0.74h-5.84a13.527,13.527,0,0,0,0-9.11h9.01A10.366,10.366,0,0,0,1217.96,7313.39Zm13.09-4.26h-4.57v-6.83a2.285,2.285,0,1,1,4.57,0v6.83Zm7.6,0h-4.56v-6.83a2.28,2.28,0,1,1,4.56,0v6.83Zm-11.82,51.85" transform="translate(-1185.09 -7296.97)"/>
</svg>
