<svg xmlns="http://www.w3.org/2000/svg" width="51" height="56" viewBox="0 0 51 56">
  <metadata><?xpacket begin="﻿" id="W5M0MpCehiHzreSzNTczkc9d"?>
<x:xmpmeta xmlns:x="adobe:ns:meta/" x:xmptk="Adobe XMP Core 5.6-c138 79.159824, 2016/09/14-01:09:01        ">
   <rdf:RDF xmlns:rdf="http://www.w3.org/1999/02/22-rdf-syntax-ns#">
      <rdf:Description rdf:about=""/>
   </rdf:RDF>
</x:xmpmeta>
                                                                                                    
                                                                                                    
                                                                                                    
                                                                                                    
                                                                                                    
                                                                                                    
                                                                                                    
                                                                                                    
                                                                                                    
                                                                                                    
                                                                                                    
                                                                                                    
                                                                                                    
                                                                                                    
                                                                                                    
                                                                                                    
                                                                                                    
                                                                                                    
                                                                                                    
                                                                                                    
                           
<?xpacket end="w"?></metadata>
<defs>
    <style>
      .cls-1 {
        fill: #fff;
        fill-rule: evenodd;
      }
    </style>
  </defs>
  <path id="rheostatic-icon" class="cls-1" d="M1024.74,9045.48a21.755,21.755,0,0,0-5.24-5.26,9.078,9.078,0,0,0-3.26-.63h-0.67v-4.52a2.006,2.006,0,0,0-2-2H990.79a2,2,0,0,0-2,2v4.52h-0.67a5.752,5.752,0,0,0-2.62.63,20.634,20.634,0,0,0-8.5,13.13,1.181,1.181,0,0,0,1.31.63h48.39a1.166,1.166,0,0,0,1.3-.63A30.564,30.564,0,0,0,1024.74,9045.48Zm-33.75-10.21h22.38v4.09H990.99v-4.09Zm-11.34,16.51a17.412,17.412,0,0,1,2.41-5.02,18.786,18.786,0,0,1,4.55-4.63,3.518,3.518,0,0,1,1.51-.34h28.12a7.764,7.764,0,0,1,2.18.36,19.6,19.6,0,0,1,4.48,4.54,23.253,23.253,0,0,1,2.33,5.09H979.65Zm0.18-43.17c0-5.14,4.65-10.64,11.58-10.64h0.03c2.25,0,9.31.69,11.44,9.26a10.124,10.124,0,0,1,5.96,9.27v11.49a1.1,1.1,0,1,1-2.2,0V9016.5a8.115,8.115,0,0,0-5.07-7.45l-0.58-.2-0.14-.61c-1.56-7.27-7.04-8.07-9.36-8.07h-0.03c-5.58,0-9.43,4.45-9.43,8.44a9.386,9.386,0,0,0,8.22,9.84l0.65,0.07,0.25,0.61a7.843,7.843,0,0,0,5.65,4.72l0.94,0.14v3.91a1.1,1.1,0,1,1-2.2,0v-2.11a9.933,9.933,0,0,1-6.17-5.26C985.74,9019.87,979.83,9016.73,979.83,9008.61Z" transform="translate(-977 -8997.97)"/>
</svg>
