<svg xmlns="http://www.w3.org/2000/svg" width="77" height="44" viewBox="0 0 77 44">
  <metadata><?xpacket begin="﻿" id="W5M0MpCehiHzreSzNTczkc9d"?>
<x:xmpmeta xmlns:x="adobe:ns:meta/" x:xmptk="Adobe XMP Core 5.6-c138 79.159824, 2016/09/14-01:09:01        ">
   <rdf:RDF xmlns:rdf="http://www.w3.org/1999/02/22-rdf-syntax-ns#">
      <rdf:Description rdf:about=""/>
   </rdf:RDF>
</x:xmpmeta>
                                                                                                    
                                                                                                    
                                                                                                    
                                                                                                    
                                                                                                    
                                                                                                    
                                                                                                    
                                                                                                    
                                                                                                    
                                                                                                    
                                                                                                    
                                                                                                    
                                                                                                    
                                                                                                    
                                                                                                    
                                                                                                    
                                                                                                    
                                                                                                    
                                                                                                    
                                                                                                    
                           
<?xpacket end="w"?></metadata>
<defs>
    <style>
      .cls-1 {
        fill: #fff;
        fill-rule: evenodd;
      }
    </style>
  </defs>
  <path id="truck-whte-icon" class="cls-1" d="M980.868,9264.75h10.456a1,1,0,0,1,1,1V9266a1,1,0,0,1-1,1H980.868a1,1,0,0,1-1-1v-0.25A1,1,0,0,1,980.868,9264.75ZM978,9257.89h17.135a1,1,0,0,1,1,1v0.25a1,1,0,0,1-1,1H978a1,1,0,0,1-1-1v-0.25A1,1,0,0,1,978,9257.89Zm3.839-6.86h17.135a1,1,0,0,1,1,1v0.25a1,1,0,0,1-1,1H981.836a1,1,0,0,1-1-1v-0.25A1,1,0,0,1,981.836,9251.03Zm71.514,10.64-3.87-4.94a3.046,3.046,0,0,0-2.42-1.18h-0.07a57.162,57.162,0,0,0-2.58-8.34,4.846,4.846,0,0,0-3.81-2.48l-6.78.07V9243a3.052,3.052,0,0,0-3.07-3.04H988.979a3.42,3.42,0,0,0-3.076,2.93,16.216,16.216,0,0,0-.02,1.99v0.16a1.109,1.109,0,0,0,1.1,1.1,1.1,1.1,0,0,0,1.1-1.1v-0.18c0-.43-0.01-1.54-0.01-1.65a1.312,1.312,0,0,1,.909-1.06h41.771a0.863,0.863,0,0,1,.88.85v14.76h15.43a1.355,1.355,0,0,1,.2.02,0.884,0.884,0,0,1,.49.31l3.87,4.94a0.815,0.815,0,0,1,.18.51v11.61a0.86,0.86,0,0,1-.87.85h-6.06a7.172,7.172,0,0,0-14.3.02c-6.45,0-14.4.01-21.65,0.02a7.178,7.178,0,0,0-14.318.02c-3.7.01-6.033,0.01-6.033,0.01l-0.149.01a0.283,0.283,0,0,1-.34-0.25c-0.01-.25,0-2.05,0-2.69v-0.24a1.1,1.1,0,0,0-2.2,0v0.23c-0.01,2.77,0,2.82.02,2.94a2.457,2.457,0,0,0,2.5,2.2,1.687,1.687,0,0,0,.229-0.01c0.39,0,2.677,0,6.123-.01a7.162,7.162,0,0,0,14.028-.01c7.34-.01,15.4-0.03,21.92-0.03a7.164,7.164,0,0,0,14.05-.02h6.18a3.052,3.052,0,0,0,3.07-3.04v-11.61A3.077,3.077,0,0,0,1053.35,9261.67Zm-19.53-6.12v-8.57l6.7-.07a2.6,2.6,0,0,1,1.95,1.34,52.914,52.914,0,0,1,2.25,7.3h-10.9Zm-27.3,22.69a4.97,4.97,0,0,1-9.511.01,5.424,5.424,0,0,1-.24-1.57,4.213,4.213,0,0,1,.04-0.62,4.978,4.978,0,0,1,9.9-.01,3.281,3.281,0,0,1,.05.63A5.041,5.041,0,0,1,1006.52,9278.24Zm31.2,3.53a5,5,0,0,1-4.76-3.56,5.151,5.151,0,0,1-.23-1.53,3.6,3.6,0,0,1,.05-0.66,4.972,4.972,0,0,1,9.88-.02,5.061,5.061,0,0,1,.05.68,5.352,5.352,0,0,1-.22,1.51A5.013,5.013,0,0,1,1037.72,9281.77Z" transform="translate(-977 -9239.97)"/>
</svg>
