<svg xmlns="http://www.w3.org/2000/svg" width="54" height="32" viewBox="0 0 54 32">
  <metadata><?xpacket begin="﻿" id="W5M0MpCehiHzreSzNTczkc9d"?>
<x:xmpmeta xmlns:x="adobe:ns:meta/" x:xmptk="Adobe XMP Core 5.6-c138 79.159824, 2016/09/14-01:09:01        ">
   <rdf:RDF xmlns:rdf="http://www.w3.org/1999/02/22-rdf-syntax-ns#">
      <rdf:Description rdf:about=""/>
   </rdf:RDF>
</x:xmpmeta>
                                                                                                    
                                                                                                    
                                                                                                    
                                                                                                    
                                                                                                    
                                                                                                    
                                                                                                    
                                                                                                    
                                                                                                    
                                                                                                    
                                                                                                    
                                                                                                    
                                                                                                    
                                                                                                    
                                                                                                    
                                                                                                    
                                                                                                    
                                                                                                    
                                                                                                    
                                                                                                    
                           
<?xpacket end="w"?></metadata>
<defs>
    <style>
      .cls-1 {
        fill: #005dbd;
        fill-rule: evenodd;
      }
    </style>
  </defs>
  <path id="truck-icon" class="cls-1" d="M1047.69,5048.88l-2.76-3.49-4.44-8.68a1.505,1.505,0,0,0-1.33-.8h-6.32v-1.46a1.464,1.464,0,0,0-1.48-1.45H999.68a1.455,1.455,0,1,0,0,2.91h30.2v10.18a1.473,1.473,0,0,0,1.48,1.46h11.52l2.16,2.72v7.51h-2.8a5.944,5.944,0,0,0-11.49,0H1015a5.944,5.944,0,0,0-11.49,0h-3.83a1.455,1.455,0,1,0,0,2.91h3.86a5.944,5.944,0,0,0,11.43,0h15.81a5.942,5.942,0,0,0,11.43-.01h4.31a1.464,1.464,0,0,0,1.48-1.45v-9.46A1.458,1.458,0,0,0,1047.69,5048.88Zm-14.85-4.24v-5.82h5.41l2.98,5.82h-8.39Zm-23.58,17.45a2.942,2.942,0,0,1-2.97-2.86v-0.05A2.966,2.966,0,1,1,1009.26,5062.09Zm30.2-2.86a2.935,2.935,0,1,1,0-.05v0.05Zm-34.75-8.82H997.9a1.455,1.455,0,1,0,0,2.91h6.81A1.455,1.455,0,1,0,1004.71,5050.41Zm3.41-5.73H995.48a1.455,1.455,0,1,0,0,2.91h12.64A1.455,1.455,0,1,0,1008.12,5044.68Zm2.42-5.72H997.9a1.455,1.455,0,1,0,0,2.91h12.64A1.455,1.455,0,1,0,1010.54,5038.96Z" transform="translate(-994 -5033)"/>
</svg>
