<svg xmlns="http://www.w3.org/2000/svg" viewBox="0 0 46 55"><title>Ресурс 7</title><g id="Слой_2" data-name="Слой 2"><g id="Слой_1-2" data-name="Слой 1"><path d="M45.86,51.32,44.6,47.39a11.58,11.58,0,0,0-10.84-7.47H31.29l-.55-1.84a7.5,7.5,0,0,1,.11-2.36c.12-1,.29-2,.51-3a7.93,7.93,0,0,0,2.06-4.6,1.15,1.15,0,0,0,.37.06,1.69,1.69,0,0,0,.5-.08c.49-.16,2-.65,2-6.53,0-.64,0-2.56-1.31-3.14a1.71,1.71,0,0,0-.67-.14,8.5,8.5,0,0,0,.07-.87,2.44,2.44,0,0,0,0-.27A8.45,8.45,0,0,0,34.28,16h.09V11.26a11.38,11.38,0,0,0-22.75,0V16h.1a10.2,10.2,0,0,0-.1,1.22c0,.09,0,.18,0,.27a8.52,8.52,0,0,0,.08.87,1.71,1.71,0,0,0-.67.14C9.73,19,9.73,21,9.73,21.59c0,5.88,1.48,6.37,2,6.53a1.81,1.81,0,0,0,.51.08,1.15,1.15,0,0,0,.37-.06,7.87,7.87,0,0,0,2.06,4.6c.22,1,.39,2,.51,3a7.5,7.5,0,0,1,.11,2.36l-.55,1.84H12.23a11.76,11.76,0,0,0-2.64.31l-.05,0a11.52,11.52,0,0,0-8.16,7.18L.14,51.32A2.82,2.82,0,0,0,2,54.87a3.16,3.16,0,0,0,.87.13h40.3A2.84,2.84,0,0,0,46,52.17,2.7,2.7,0,0,0,45.86,51.32Z" style="fill:#bed5eb"/><path d="M45.86,51.32,44.6,47.39a11.58,11.58,0,0,0-10.84-7.47H31.29l-.55-1.84a7.5,7.5,0,0,1,.11-2.36c.12-1,.29-2,.51-3a7.93,7.93,0,0,0,2.06-4.6,1.15,1.15,0,0,0,.37.06,1.69,1.69,0,0,0,.5-.08c.49-.16,2-.65,2-6.53,0-.64,0-2.56-1.31-3.14a1.71,1.71,0,0,0-.67-.14,8.5,8.5,0,0,0,.07-.87,2.44,2.44,0,0,0,0-.27A8.45,8.45,0,0,0,34.28,16h.09V11.26a11.38,11.38,0,0,0-22.75,0V16h.1a10.2,10.2,0,0,0-.1,1.22c0,.09,0,.18,0,.27a8.52,8.52,0,0,0,.08.87,1.71,1.71,0,0,0-.67.14C9.73,19,9.73,21,9.73,21.59c0,5.88,1.48,6.37,2,6.53a1.81,1.81,0,0,0,.51.08,1.15,1.15,0,0,0,.37-.06,7.87,7.87,0,0,0,2.06,4.6c.22,1,.39,2,.51,3a7.5,7.5,0,0,1,.11,2.36l-.55,1.84H12.23a11.76,11.76,0,0,0-2.64.31l-.05,0a11.52,11.52,0,0,0-8.16,7.18L.14,51.32A2.82,2.82,0,0,0,2,54.87a3.16,3.16,0,0,0,.87.13h40.3A2.84,2.84,0,0,0,46,52.17,2.7,2.7,0,0,0,45.86,51.32ZM5,53.12H2.85a.94.94,0,0,1-.91-1.23l1.23-3.84a9.57,9.57,0,0,1,1.82-3Zm3.79,0H6.88V49.37h1.9Zm0-5.63H6.88V43.4a9.68,9.68,0,0,1,1.9-1ZM33.86,20.38a1.26,1.26,0,0,1,.32-.18,3.26,3.26,0,0,1,.19,1.39c0,2.93-.41,4.25-.65,4.66a2.79,2.79,0,0,1-.4-.44A21.13,21.13,0,0,1,33.86,20.38ZM13.52,11.26a9.48,9.48,0,0,1,19,0v1.29l-.23-.3a12.19,12.19,0,0,0-6-3.82,3.73,3.73,0,0,0-1.41-5.12A3.8,3.8,0,0,0,19.71,4.7a3.71,3.71,0,0,0,0,3.73,12.26,12.26,0,0,0-6,3.82l-.22.3V11.26ZM23,9.83a10.27,10.27,0,0,1,7.81,3.63,11.64,11.64,0,0,1,1,1.34l-1.86.93a8,8,0,0,0-.8-.74A10.07,10.07,0,0,0,23,13.06,10.05,10.05,0,0,0,16.89,15a6,6,0,0,0-.78.73l-1.88-.93a11.53,11.53,0,0,1,1-1.33A10.27,10.27,0,0,1,23,9.83ZM21.1,6.57a1.9,1.9,0,0,1,3.79,0A1.84,1.84,0,0,1,24.18,8a10.44,10.44,0,0,0-2.37,0A1.87,1.87,0,0,1,21.1,6.57ZM12.68,25.81a2.85,2.85,0,0,1-.41.44c-.23-.41-.65-1.73-.65-4.66a3.43,3.43,0,0,1,.2-1.39,1.45,1.45,0,0,1,.32.18A21.58,21.58,0,0,1,12.68,25.81Zm1.79,2.27c0-.21,0-.42,0-.61A23.05,23.05,0,0,0,13.77,19h0a6.66,6.66,0,0,1-.24-1.66v-.21c0-.21,0-.41,0-.62l1.71.85A1.91,1.91,0,0,0,17.49,17a5.88,5.88,0,0,1,.58-.53A8.11,8.11,0,0,1,23,14.94a8.11,8.11,0,0,1,4.93,1.52,5,5,0,0,1,.58.54,1.92,1.92,0,0,0,2.23.4l1.7-.85c0,.22,0,.45,0,.7v.13A6.65,6.65,0,0,1,32.23,19a23.31,23.31,0,0,0-.73,8.44,5.93,5.93,0,0,1,0,.61c0,1.82-2,4.41-5.58,7.3a4.72,4.72,0,0,1-5.9,0C16.45,32.49,14.47,29.9,14.47,28.08Zm0,13.72h.93a.94.94,0,0,0,.9-.67l.78-2.6a1,1,0,0,0,0-.17A9.09,9.09,0,0,0,17,35.51c0-.1,0-.19,0-.29.57.53,1.18,1.06,1.86,1.61a6.63,6.63,0,0,0,8.29,0c.69-.55,1.29-1.08,1.87-1.61,0,.1,0,.19,0,.28a8.86,8.86,0,0,0-.11,2.86,1,1,0,0,0,0,.17l.77,2.6a1,1,0,0,0,.91.67h.93a.77.77,0,0,1,0,.15c0,1.74-3.5,3.67-8.53,3.67S14.47,43.69,14.47,42A.77.77,0,0,1,14.49,41.8ZM35.32,53.12H10.68V46.77c2.39,2.74,6.87,4.48,12.32,4.48s9.93-1.73,12.32-4.47v6.34ZM23,49.37c-7,0-12.21-3.06-12.32-7.26v-.18a10,10,0,0,1,1.55-.13h.36c0,.05,0,.1,0,.15,0,3.11,4.58,5.54,10.43,5.54S33.43,45.06,33.43,42c0-.05,0-.1,0-.15h.35a10.05,10.05,0,0,1,1.56.13v0C35.32,46.25,30.14,49.37,23,49.37Zm16.11,3.75H37.22V49.37h1.89Zm0-5.63H37.22V42.44a9.6,9.6,0,0,1,1.89,1Zm4.8,5.25a.93.93,0,0,1-.76.38H41V45.06A9.78,9.78,0,0,1,42.81,48l1.24,3.89A.9.9,0,0,1,43.91,52.74Z" style="fill:#005dbd"/><path d="M24,27.22h-1.9a.94.94,0,1,0,0,1.87H24a.94.94,0,1,0,0-1.87Z" style="fill:#005dbd"/><path d="M20.16,20.65h-3.8a.94.94,0,1,0,0,1.87h.95v.94a1,1,0,0,0,1.9,0v-.94h.95a.94.94,0,1,0,0-1.87Z" style="fill:#005dbd"/><path d="M29.63,20.65H25.84a.94.94,0,1,0,0,1.87h.95v.94a1,1,0,0,0,1.9,0v-.94h.94a.94.94,0,1,0,0-1.87Z" style="fill:#005dbd"/></g></g></svg>