<svg xmlns="http://www.w3.org/2000/svg" width="50.969" height="67" viewBox="0 0 50.969 67">
  <metadata><?xpacket begin="﻿" id="W5M0MpCehiHzreSzNTczkc9d"?>
<x:xmpmeta xmlns:x="adobe:ns:meta/" x:xmptk="Adobe XMP Core 5.6-c138 79.159824, 2016/09/14-01:09:01        ">
   <rdf:RDF xmlns:rdf="http://www.w3.org/1999/02/22-rdf-syntax-ns#">
      <rdf:Description rdf:about=""/>
   </rdf:RDF>
</x:xmpmeta>
                                                                                                    
                                                                                                    
                                                                                                    
                                                                                                    
                                                                                                    
                                                                                                    
                                                                                                    
                                                                                                    
                                                                                                    
                                                                                                    
                                                                                                    
                                                                                                    
                                                                                                    
                                                                                                    
                                                                                                    
                                                                                                    
                                                                                                    
                                                                                                    
                                                                                                    
                                                                                                    
                           
<?xpacket end="w"?></metadata>
<defs>
    <style>
      .cls-1 {
        fill: #005dbd;
        fill-rule: evenodd;
      }
    </style>
  </defs>
  <path id="worker-cut-icon" class="cls-1" d="M938.306,7354.95h-3.8l-0.836-2.81a10.905,10.905,0,0,1,.171-3.61,41,41,0,0,1,.776-4.54,12.008,12.008,0,0,0,3.153-7.02,2.749,2.749,0,0,0,.564.09,2.31,2.31,0,0,0,.785-0.13c0.746-.24,3.022-0.99,3.022-9.98,0-.96,0-3.9-2-4.79a2.419,2.419,0,0,0-1.028-.2,11.885,11.885,0,0,0,.111-1.33c0.01-.14.02-0.28,0.02-0.41a14.4,14.4,0,0,0-.151-1.87h0.151v-7.16a17.437,17.437,0,0,0-34.87,0v7.16h0.141a12.971,12.971,0,0,0-.141,1.87c0,0.13,0,.27.01,0.4,0.021,0.45.051,0.89,0.111,1.34a2.444,2.444,0,0,0-1.027.2c-2,.89-2,3.83-2,4.79,0,8.99,2.277,9.74,3.032,9.98a2.3,2.3,0,0,0,.776.13,2.665,2.665,0,0,0,.564-0.09,11.958,11.958,0,0,0,3.162,7.02,45.881,45.881,0,0,1,.776,4.55,11.077,11.077,0,0,1,.171,3.6l-0.846,2.81h-3.8a17.3,17.3,0,0,0-4.049.48c-0.031,0-.051.01-0.081,0.01a17.786,17.786,0,0,0-9.206,5.5h5.147v-0.68a14.918,14.918,0,0,1,2.9-1.47v2.16h3.455a7.62,7.62,0,0,1-.544-2.65v-0.28a15.774,15.774,0,0,1,2.377-.21h0.554a1.967,1.967,0,0,0-.03.24,5.1,5.1,0,0,0,.936,2.9c1.33,0.01,2.69.01,4.049,0.01-1.339-.9-2.085-1.92-2.085-2.91,0.01-.08.021-0.16,0.031-0.24h1.43a1.438,1.438,0,0,0,1.39-1.02l1.188-3.97a1.05,1.05,0,0,0,.061-0.26,13.716,13.716,0,0,0-.161-4.35c-0.021-.14-0.051-0.29-0.071-0.44,0.887,0.81,1.813,1.62,2.861,2.46a10.193,10.193,0,0,0,12.7,0c1.047-.84,1.984-1.65,2.86-2.46-0.02.14-.04,0.29-0.06,0.43a13.474,13.474,0,0,0-.161,4.36,1.089,1.089,0,0,0,.05.26l1.188,3.97a1.451,1.451,0,0,0,1.4,1.02h1.421l0.03,0.24c0,1-.766,2.04-2.125,2.95h4.059a5.213,5.213,0,0,0,.967-2.95c0-.08-0.021-0.16-0.021-0.24h0.544a15.8,15.8,0,0,1,2.378.21l0.01,0.04a7.777,7.777,0,0,1-.565,2.93c1.793,0,2.821-.01,2.821-0.03v-5.39A17.929,17.929,0,0,0,938.306,7354.95Zm0.141-29.84a2.667,2.667,0,0,1,.494-0.28,5.1,5.1,0,0,1,.3,2.12c0,4.49-.634,6.5-1,7.12a4.273,4.273,0,0,1-.624-0.66A32.414,32.414,0,0,1,938.447,7325.11Zm-31.173-13.92a14.53,14.53,0,0,1,29.058,0v1.97c-0.121-.15-0.221-0.32-0.342-0.46a18.715,18.715,0,0,0-9.136-5.83,5.7,5.7,0,0,0-2.165-7.82,5.85,5.85,0,0,0-7.927,2.13,5.639,5.639,0,0,0,0,5.69,18.748,18.748,0,0,0-9.146,5.83c-0.12.14-.221,0.31-0.342,0.46v-1.97Zm14.534-2.18a15.753,15.753,0,0,1,11.966,5.54,16.014,16.014,0,0,1,1.47,2.03l-2.85,1.43a10.8,10.8,0,0,0-1.229-1.12,16.33,16.33,0,0,0-18.724,0,9.6,9.6,0,0,0-1.2,1.1l-2.87-1.42a15.913,15.913,0,0,1,1.47-2.02A15.754,15.754,0,0,1,921.808,7309.01Zm-2.911-4.98a2.906,2.906,0,0,1,5.812,0,2.8,2.8,0,0,1-1.088,2.21,17,17,0,0,0-3.636,0A2.8,2.8,0,0,1,918.9,7304.03Zm-13.527,30.04c-0.362-.62-1-2.63-1-7.12a4.956,4.956,0,0,1,.3-2.12,2.361,2.361,0,0,1,.484.29,31.9,31.9,0,0,1,.826,8.29A4.809,4.809,0,0,1,905.37,7334.07Zm20.951,13.94a7.266,7.266,0,0,1-9.035,0c-5.52-4.41-8.562-8.36-8.562-11.14,0-.31.021-0.63,0.041-0.92a35.174,35.174,0,0,0-1.1-12.88,10.3,10.3,0,0,1-.373-2.54l-0.02-.31c0-.33.02-0.64,0.05-0.96l2.619,1.3a2.948,2.948,0,0,0,3.425-.62,7.605,7.605,0,0,1,.886-0.81,13.458,13.458,0,0,1,15.108,0,7.627,7.627,0,0,1,.887.82,2.946,2.946,0,0,0,3.414.61l2.619-1.29c0.03,0.33.05,0.68,0.05,1.06l-0.01.2a10.758,10.758,0,0,1-.372,2.52,35.393,35.393,0,0,0-1.108,12.88c0.03,0.31.04,0.63,0.04,0.94C934.882,7339.65,931.84,7343.6,926.321,7348.01Zm-3.062-12.45h-2.911a1.43,1.43,0,1,0,0,2.86h2.911A1.43,1.43,0,1,0,923.259,7335.56Zm-5.812-10.04h-5.812a1.435,1.435,0,1,0,0,2.87h1.451v1.43a1.456,1.456,0,0,0,2.911,0v-1.43h1.45A1.435,1.435,0,1,0,917.447,7325.52Zm14.524,0h-5.812a1.435,1.435,0,1,0,0,2.87h1.461v1.43a1.451,1.451,0,0,0,2.9,0v-1.43h1.45A1.435,1.435,0,1,0,931.971,7325.52Z" transform="translate(-891.969 -7294)"/>
</svg>
